<?xml version="1.0" standalone="no"?>
<!DOCTYPE svg PUBLIC "-//W3C//DTD SVG 20010904//EN"
 "http://www.w3.org/TR/2001/REC-SVG-20010904/DTD/svg10.dtd">
<svg version="1.0" xmlns="http://www.w3.org/2000/svg"
 width="789.000000pt" height="789.000000pt" viewBox="0 0 789.000000 789.000000"
 preserveAspectRatio="xMidYMid meet">
<metadata>
Created by potrace 1.11, written by Peter Selinger 2001-2013
</metadata>
<g transform="translate(0.000000,789.000000) scale(0.100000,-0.100000)"
fill="#000000" stroke="none">
<path d="M3695 7874 c-22 -2 -89 -9 -150 -15 -364 -35 -788 -176 -1065 -354
-410 -263 -699 -640 -846 -1105 -118 -375 -145 -837 -73 -1243 17 -96 73 -314
94 -369 7 -17 -24 -18 -559 -18 l-566 0 0 -411 0 -410 41 -50 42 -49 220 -2
220 -3 612 -1686 c576 -1590 614 -1690 654 -1738 l43 -51 329 0 328 0 14 28
c8 15 209 552 448 1194 238 642 437 1164 441 1160 4 -4 71 -182 150 -397 l144
-390 -6 -508 -5 -508 -25 -19 -25 -19 -12 117 c-6 64 -19 151 -28 192 -15 69
-28 112 -99 305 -78 216 -72 447 18 657 15 36 15 37 -11 67 -38 43 -63 39
-112 -14 -187 -202 -291 -530 -261 -816 17 -159 47 -268 133 -486 74 -184 149
-412 160 -484 l5 -36 -131 -37 c-567 -156 -1243 -256 -1737 -256 -115 0 -150
-3 -168 -16 -30 -20 -28 -37 9 -73 l31 -31 126 0 c518 0 1372 129 1852 279 82
26 94 26 149 -1 67 -33 151 -31 213 5 25 15 55 39 65 53 l19 26 41 -21 c61
-31 114 -36 171 -18 41 14 67 15 153 7 140 -13 447 -12 589 0 257 24 453 65
715 150 289 95 450 123 685 123 183 0 301 -19 445 -69 142 -49 141 -49 154
-25 16 30 3 50 -79 120 -214 185 -472 301 -780 353 -118 20 -438 15 -595 -10
-71 -11 -131 -19 -132 -18 -1 1 68 195 153 431 l155 430 51 45 c200 177 469
310 708 350 87 15 100 23 100 59 0 45 -46 80 -121 92 -82 13 -304 16 -438 6
-98 -8 -103 -7 -96 10 4 10 121 335 261 723 140 388 259 715 264 728 10 22 10
22 255 22 l245 0 0 408 0 407 -43 52 -42 53 -537 0 c-296 0 -538 3 -538 7 0 3
9 54 21 112 11 58 23 116 25 129 4 22 5 22 209 22 l205 0 0 376 0 376 -37 49
-38 48 -1352 1 -1353 0 0 -379 0 -378 38 -47 37 -46 674 0 674 0 -7 -32 c-10
-52 -101 -232 -158 -315 -29 -42 -87 -111 -128 -152 l-75 -76 -5 106 c-5 102
-6 107 -37 143 -18 20 -33 41 -33 46 0 6 -332 10 -910 10 l-910 0 0 -155 c0
-102 -4 -155 -11 -155 -5 0 -61 51 -122 113 -101 101 -118 123 -169 222 -109
212 -156 398 -165 656 -22 631 222 1100 697 1339 251 126 533 175 905 158 361
-17 726 -130 940 -291 l70 -52 17 -163 17 -163 42 -49 42 -50 384 0 383 0 0
735 0 735 -37 50 -38 49 -367 0 -368 1 -5 -27 c-14 -67 -38 -153 -42 -153 -3
0 -69 32 -147 70 -219 109 -452 178 -726 216 -101 14 -482 26 -565 18z m-1405
-4040 c108 -110 305 -250 490 -347 111 -58 304 -138 384 -158 43 -11 47 -14
41 -36 -3 -14 -92 -268 -196 -566 -105 -298 -209 -595 -232 -660 -28 -79 -44
-112 -49 -103 -5 8 -96 268 -204 578 -107 310 -255 734 -328 943 l-133 380 31
6 c17 4 58 7 91 8 60 1 62 0 105 -45z m3420 40 c0 -14 -655 -1887 -668 -1909
-4 -9 -46 96 -109 275 l-102 288 26 114 c55 249 166 466 317 620 31 32 56 62
56 67 0 22 -56 71 -80 71 -67 0 -298 -144 -434 -272 l-72 -66 -33 96 c-19 54
-36 102 -38 108 -3 7 25 19 69 29 373 90 723 280 958 519 42 43 72 66 87 66
13 0 23 -3 23 -6z"/>
</g>
</svg>
